<svg xmlns="http://www.w3.org/2000/svg" width="1500" height="1500" viewBox="0 0 1500 1500" version="1.1"><path d="M 714.500 120.589 C 712.300 120.796, 704.200 121.451, 696.500 122.045 C 580.452 130.995, 465.386 174.735, 371.351 245.643 C 338.349 270.528, 297.617 308.865, 270.565 340.500 C 192.928 431.293, 142.981 541.049, 126.078 658 C 121.125 692.272, 120.499 702.456, 120.519 748.500 C 120.539 795.580, 121.303 807.498, 126.595 843.285 C 143.808 959.675, 191.762 1065.191, 269.353 1157.404 C 282.575 1173.119, 320.995 1211.750, 337 1225.422 C 433.077 1307.501, 541.503 1356.664, 663.500 1373.466 C 701.648 1378.720, 756.202 1380.453, 794 1377.612 C 867.407 1372.094, 928.719 1357.381, 997.500 1328.777 C 1013.729 1322.028, 1053.272 1301.837, 1070.353 1291.577 C 1144.387 1247.107, 1205.703 1191.446, 1257.167 1121.993 C 1320.571 1036.425, 1361.641 933.447, 1374.416 828 C 1378.099 797.605, 1378.499 789.928, 1378.458 750.500 C 1378.416 710.106, 1377.493 694.256, 1373.447 664.500 C 1360.492 569.227, 1326.869 480.222, 1273.810 400.742 C 1214.067 311.252, 1131.701 237.724, 1036.500 188.898 C 964.213 151.823, 893.838 131.299, 808.500 122.403 C 794.467 120.941, 725.007 119.600, 714.500 120.589 M 711.500 158.595 C 709.300 158.803, 701.875 159.454, 695 160.042 C 665.700 162.548, 624.088 170.001, 594.293 178.078 C 455.772 215.632, 334.909 303.001, 255.476 423 C 239.408 447.274, 231.208 461.630, 217.489 489.500 C 185.238 555.021, 166.658 621.509, 159.365 697.500 C 157.346 718.537, 157.104 768.705, 158.910 792 C 165.142 872.403, 183.930 941.611, 218.498 1011.500 C 256.148 1087.622, 305.505 1149.970, 372.421 1205.934 C 464.108 1282.616, 577.617 1329.033, 699 1339.482 C 722.342 1341.492, 775.625 1341.493, 799 1339.485 C 958.778 1325.761, 1100.133 1252.138, 1204.058 1128.516 C 1287.725 1028.991, 1336.046 903.339, 1340.901 772.674 C 1346.222 629.472, 1300.634 490.246, 1212.488 380.500 C 1168.905 326.236, 1113.724 277.827, 1055.500 242.778 C 979.267 196.888, 902.597 171.205, 809.500 160.373 C 797.267 158.950, 722.177 157.588, 711.500 158.595 M 852 321 L 852 372 875.276 372 C 898.834 372, 911.737 372.993, 920.093 375.449 C 935.552 379.993, 943.371 389.838, 946.776 409.046 L 948.363 418 972.181 418 L 996 418 996 447 L 996 476 972.417 476 L 948.833 476 949.261 539.250 C 949.658 597.910, 949.845 603.485, 951.843 616.073 C 958.627 658.829, 974.165 692.809, 998.311 717.695 C 1012.779 732.607, 1027.440 742.039, 1043.941 747.051 L 1051.297 749.285 1042.398 752.479 C 1019.919 760.547, 1003.373 770.720, 989.757 784.846 C 968.846 806.539, 957.412 833.991, 951.375 877 C 949.840 887.933, 949.539 901.849, 948.977 988 C 948.269 1096.524, 948.421 1093.956, 941.915 1107.649 C 938.681 1114.458, 934.322 1118.814, 927.213 1122.344 C 916.934 1127.446, 904.579 1129, 874.276 1129 L 852 1129 852 1180.109 L 852 1231.218 903.250 1230.709 C 931.438 1230.429, 959.225 1229.698, 965 1229.085 C 1046.896 1220.391, 1077.013 1192.733, 1087.597 1116.500 C 1089.010 1106.322, 1089.377 1089.542, 1090.011 1006 C 1090.772 905.608, 1090.936 901.496, 1095.035 879.745 C 1104.102 831.639, 1128.794 805.434, 1168.500 801.776 L 1171.500 801.500 1171.500 750 L 1171.500 698.500 1165 697.854 C 1129.428 694.318, 1105.719 669.126, 1096.076 624.618 C 1091.061 601.470, 1090.829 596.494, 1090.008 494.500 C 1089.186 392.504, 1088.947 387.353, 1083.917 363.525 C 1072.235 308.186, 1042.583 282.643, 980 274.008 C 957.410 270.892, 938.846 270.032, 893.750 270.015 L 852 270 852 321 M 558.470 275.052 C 459.759 279.356, 423.850 306.995, 412.376 387.500 C 410.901 397.850, 410.565 413.115, 409.939 498.500 C 409.540 552.950, 408.964 598.625, 408.661 600 C 408.358 601.375, 407.595 606.775, 406.967 612 C 404.605 631.632, 399.981 648.114, 392.863 662.274 C 380.920 686.037, 363.187 698.952, 336.500 703.325 L 328.500 704.636 328.241 755.771 L 327.982 806.906 331.741 807.492 C 348.633 810.125, 355.477 812.273, 365.010 817.937 C 383.276 828.788, 395.502 847.707, 402.469 875.901 C 408.705 901.140, 409.125 908.832, 410 1014 C 410.790 1108.857, 411.002 1114.447, 414.629 1136 C 422.088 1180.333, 443.023 1208.469, 478.500 1221.844 C 506.583 1232.431, 540.460 1235.919, 615.750 1235.976 L 648 1236 648 1185.144 L 648 1134.288 620.750 1133.733 C 591.660 1133.141, 583.129 1132.037, 573.464 1127.612 C 562.269 1122.487, 556.348 1113.569, 553.306 1097.250 L 551.582 1088 527.791 1088 L 504 1088 504 1058.500 L 504 1029 527.589 1029 L 551.178 1029 550.738 966.250 C 550.337 908.960, 550.118 902.367, 548.229 890.478 C 544.600 867.647, 539.009 848.494, 530.946 831.269 C 513.300 793.571, 487.867 768.695, 457.059 758.997 L 448.618 756.341 457.059 753.544 C 478.220 746.531, 496.497 735.426, 510.023 721.362 C 531.295 699.243, 542.384 672.432, 548.668 627.922 C 550.020 618.349, 550.393 600.470, 550.974 517.500 C 551.580 431.025, 551.874 417.635, 553.299 411.665 C 557.804 392.795, 566.345 383.676, 583.500 379.416 C 589.058 378.036, 596.421 377.587, 619.250 377.238 L 648 376.797 648 325.399 L 648 274 611.750 274.155 C 591.813 274.240, 567.837 274.644, 558.470 275.052 M 937 337 L 937 378 978.500 378 L 1020 378 1020 337 L 1020 296 978.500 296 L 937 296 937 337 M 845 426.015 L 845 456.030 874.750 455.765 L 904.500 455.500 904.765 425.750 L 905.030 396 875.015 396 L 845 396 845 426.015 M 820 491.500 L 820 506 834.500 506 L 849 506 849 491.500 L 849 477 834.500 477 L 820 477 820 491.500 M 881 498 L 881 519 902.500 519 L 924 519 924 498 L 924 477 902.500 477 L 881 477 881 498 M 845 537.500 L 845 547 854.500 547 L 864 547 864 537.500 L 864 528 854.500 528 L 845 528 845 537.500 M 636 968.500 L 636 978 645.500 978 L 655 978 655 968.500 L 655 959 645.500 959 L 636 959 636 968.500 M 576.686 986.647 C 576.309 987.024, 576 996.708, 576 1008.167 L 576 1029 597.520 1029 L 619.040 1029 618.770 1007.750 L 618.500 986.500 597.936 986.230 C 586.626 986.082, 577.064 986.269, 576.686 986.647 M 651 1013.973 L 651 1029 666.027 1029 L 681.053 1029 680.777 1014.250 L 680.500 999.500 665.750 999.223 L 651 998.947 651 1013.973 M 595.235 1079.750 L 595.500 1109.500 625.250 1109.765 L 655 1110.030 655 1080.015 L 655 1050 624.985 1050 L 594.970 1050 595.235 1079.750 M 480 1168.500 L 480 1210 521 1210 L 562 1210 562 1168.500 L 562 1127 521 1127 L 480 1127 480 1168.500" stroke="none" fill="#41779f" fill-rule="evenodd"/><path d="M -0 750.001 L -0 1500.001 750.250 1499.751 L 1500.500 1499.500 1500.751 749.750 L 1501.001 0 750.501 0 L 0 0 -0 750.001 M 0.497 750.500 C 0.497 1163, 0.611 1331.600, 0.750 1125.168 C 0.889 918.735, 0.889 581.235, 0.750 375.168 C 0.611 169.100, 0.497 338, 0.497 750.500 M 714.500 120.589 C 712.300 120.796, 704.200 121.451, 696.500 122.045 C 580.452 130.995, 465.386 174.735, 371.351 245.643 C 338.349 270.528, 297.617 308.865, 270.565 340.500 C 192.928 431.293, 142.981 541.049, 126.078 658 C 121.125 692.272, 120.499 702.456, 120.519 748.500 C 120.539 795.580, 121.303 807.498, 126.595 843.285 C 143.808 959.675, 191.762 1065.191, 269.353 1157.404 C 282.575 1173.119, 320.995 1211.750, 337 1225.422 C 433.077 1307.501, 541.503 1356.664, 663.500 1373.466 C 701.648 1378.720, 756.202 1380.453, 794 1377.612 C 867.407 1372.094, 928.719 1357.381, 997.500 1328.777 C 1013.729 1322.028, 1053.272 1301.837, 1070.353 1291.577 C 1144.387 1247.107, 1205.703 1191.446, 1257.167 1121.993 C 1320.571 1036.425, 1361.641 933.447, 1374.416 828 C 1378.099 797.605, 1378.499 789.928, 1378.458 750.500 C 1378.416 710.106, 1377.493 694.256, 1373.447 664.500 C 1360.492 569.227, 1326.869 480.222, 1273.810 400.742 C 1214.067 311.252, 1131.701 237.724, 1036.500 188.898 C 964.213 151.823, 893.838 131.299, 808.500 122.403 C 794.467 120.941, 725.007 119.600, 714.500 120.589 M 711.500 158.595 C 709.300 158.803, 701.875 159.454, 695 160.042 C 665.700 162.548, 624.088 170.001, 594.293 178.078 C 455.772 215.632, 334.909 303.001, 255.476 423 C 239.408 447.274, 231.208 461.630, 217.489 489.500 C 185.238 555.021, 166.658 621.509, 159.365 697.500 C 157.346 718.537, 157.104 768.705, 158.910 792 C 165.142 872.403, 183.930 941.611, 218.498 1011.500 C 256.148 1087.622, 305.505 1149.970, 372.421 1205.934 C 464.108 1282.616, 577.617 1329.033, 699 1339.482 C 722.342 1341.492, 775.625 1341.493, 799 1339.485 C 958.778 1325.761, 1100.133 1252.138, 1204.058 1128.516 C 1287.725 1028.991, 1336.046 903.339, 1340.901 772.674 C 1346.222 629.472, 1300.634 490.246, 1212.488 380.500 C 1168.905 326.236, 1113.724 277.827, 1055.500 242.778 C 979.267 196.888, 902.597 171.205, 809.500 160.373 C 797.267 158.950, 722.177 157.588, 711.500 158.595 M 852 321 L 852 372 875.276 372 C 898.834 372, 911.737 372.993, 920.093 375.449 C 935.552 379.993, 943.371 389.838, 946.776 409.046 L 948.363 418 972.181 418 L 996 418 996 447 L 996 476 972.417 476 L 948.833 476 949.261 539.250 C 949.658 597.910, 949.845 603.485, 951.843 616.073 C 958.627 658.829, 974.165 692.809, 998.311 717.695 C 1012.779 732.607, 1027.440 742.039, 1043.941 747.051 L 1051.297 749.285 1042.398 752.479 C 1019.919 760.547, 1003.373 770.720, 989.757 784.846 C 968.846 806.539, 957.412 833.991, 951.375 877 C 949.840 887.933, 949.539 901.849, 948.977 988 C 948.269 1096.524, 948.421 1093.956, 941.915 1107.649 C 938.681 1114.458, 934.322 1118.814, 927.213 1122.344 C 916.934 1127.446, 904.579 1129, 874.276 1129 L 852 1129 852 1180.109 L 852 1231.218 903.250 1230.709 C 931.438 1230.429, 959.225 1229.698, 965 1229.085 C 1046.896 1220.391, 1077.013 1192.733, 1087.597 1116.500 C 1089.010 1106.322, 1089.377 1089.542, 1090.011 1006 C 1090.772 905.608, 1090.936 901.496, 1095.035 879.745 C 1104.102 831.639, 1128.794 805.434, 1168.500 801.776 L 1171.500 801.500 1171.500 750 L 1171.500 698.500 1165 697.854 C 1129.428 694.318, 1105.719 669.126, 1096.076 624.618 C 1091.061 601.470, 1090.829 596.494, 1090.008 494.500 C 1089.186 392.504, 1088.947 387.353, 1083.917 363.525 C 1072.235 308.186, 1042.583 282.643, 980 274.008 C 957.410 270.892, 938.846 270.032, 893.750 270.015 L 852 270 852 321 M 558.470 275.052 C 459.759 279.356, 423.850 306.995, 412.376 387.500 C 410.901 397.850, 410.565 413.115, 409.939 498.500 C 409.540 552.950, 408.964 598.625, 408.661 600 C 408.358 601.375, 407.595 606.775, 406.967 612 C 404.605 631.632, 399.981 648.114, 392.863 662.274 C 380.920 686.037, 363.187 698.952, 336.500 703.325 L 328.500 704.636 328.241 755.771 L 327.982 806.906 331.741 807.492 C 348.633 810.125, 355.477 812.273, 365.010 817.937 C 383.276 828.788, 395.502 847.707, 402.469 875.901 C 408.705 901.140, 409.125 908.832, 410 1014 C 410.790 1108.857, 411.002 1114.447, 414.629 1136 C 422.088 1180.333, 443.023 1208.469, 478.500 1221.844 C 506.583 1232.431, 540.460 1235.919, 615.750 1235.976 L 648 1236 648 1185.144 L 648 1134.288 620.750 1133.733 C 591.660 1133.141, 583.129 1132.037, 573.464 1127.612 C 562.269 1122.487, 556.348 1113.569, 553.306 1097.250 L 551.582 1088 527.791 1088 L 504 1088 504 1058.500 L 504 1029 527.589 1029 L 551.178 1029 550.738 966.250 C 550.337 908.960, 550.118 902.367, 548.229 890.478 C 544.600 867.647, 539.009 848.494, 530.946 831.269 C 513.300 793.571, 487.867 768.695, 457.059 758.997 L 448.618 756.341 457.059 753.544 C 478.220 746.531, 496.497 735.426, 510.023 721.362 C 531.295 699.243, 542.384 672.432, 548.668 627.922 C 550.020 618.349, 550.393 600.470, 550.974 517.500 C 551.580 431.025, 551.874 417.635, 553.299 411.665 C 557.804 392.795, 566.345 383.676, 583.500 379.416 C 589.058 378.036, 596.421 377.587, 619.250 377.238 L 648 376.797 648 325.399 L 648 274 611.750 274.155 C 591.813 274.240, 567.837 274.644, 558.470 275.052 M 937 337 L 937 378 978.500 378 L 1020 378 1020 337 L 1020 296 978.500 296 L 937 296 937 337 M 845 426.015 L 845 456.030 874.750 455.765 L 904.500 455.500 904.765 425.750 L 905.030 396 875.015 396 L 845 396 845 426.015 M 820 491.500 L 820 506 834.500 506 L 849 506 849 491.500 L 849 477 834.500 477 L 820 477 820 491.500 M 881 498 L 881 519 902.500 519 L 924 519 924 498 L 924 477 902.500 477 L 881 477 881 498 M 845 537.500 L 845 547 854.500 547 L 864 547 864 537.500 L 864 528 854.500 528 L 845 528 845 537.500 M 636 968.500 L 636 978 645.500 978 L 655 978 655 968.500 L 655 959 645.500 959 L 636 959 636 968.500 M 576.686 986.647 C 576.309 987.024, 576 996.708, 576 1008.167 L 576 1029 597.520 1029 L 619.040 1029 618.770 1007.750 L 618.500 986.500 597.936 986.230 C 586.626 986.082, 577.064 986.269, 576.686 986.647 M 651 1013.973 L 651 1029 666.027 1029 L 681.053 1029 680.777 1014.250 L 680.500 999.500 665.750 999.223 L 651 998.947 651 1013.973 M 595.235 1079.750 L 595.500 1109.500 625.250 1109.765 L 655 1110.030 655 1080.015 L 655 1050 624.985 1050 L 594.970 1050 595.235 1079.750 M 480 1168.500 L 480 1210 521 1210 L 562 1210 562 1168.500 L 562 1127 521 1127 L 480 1127 480 1168.500" stroke="none" fill="#fbfbfb" fill-rule="evenodd"/></svg>